<?xml version="1.0" encoding="UTF-8" standalone="no"?>
<svg
   width="100%"
   height="100%"
   viewBox="0 0 200 200"
   version="1.1"
   id="svg1"
   xml:space="preserve"
   sodipodi:docname="logo_text.svg"
   inkscape:version="1.4.2 (f4327f4, 2025-05-13)"
   xmlns:inkscape="http://www.inkscape.org/namespaces/inkscape"
   xmlns:sodipodi="http://sodipodi.sourceforge.net/DTD/sodipodi-0.dtd"
   xmlns="http://www.w3.org/2000/svg"
   xmlns:svg="http://www.w3.org/2000/svg"><sodipodi:namedview
   id="namedview1"
   pagecolor="#ffffff"
   bordercolor="#000000"
   borderopacity="0.25"
   inkscape:showpageshadow="2"
   inkscape:pageopacity="0.0"
   inkscape:pagecheckerboard="0"
   inkscape:deskcolor="#d1d1d1"
   inkscape:zoom="1.9325"
   inkscape:cx="57.956015"
   inkscape:cy="140.49159"
   inkscape:window-width="1920"
   inkscape:window-height="991"
   inkscape:window-x="-9"
   inkscape:window-y="-9"
   inkscape:window-maximized="1"
   inkscape:current-layer="svg1" />
  <defs
   id="defs1" />

  <!-- White background -->
  <rect
   width="200"
   height="200"
   fill="white"
   id="rect1" />

  <!--
    Symmetrical fire icon.
    Axis of symmetry: x=100 (canvas center).
    Outer box: left=72.54, right=127.46 (width=54.92), top=10, bottom=90.
    Left side uses original left coords mirrored around x=100.
    Inner hole also mirrored around x=100.
    scale(3.5) applied via viewBox sizing — path is already in 200x200 space.
  -->
  <g
   id="logo-group"
   transform="matrix(3.5365296,0,0,3.6715678,-249.09173,-253.36445)">
    <path
   id="fire-icon"
   style="fill:#c32824"
   d="M 70.433944,69.007157 V 123.4798 H 94.250578 L 81.369194,112.47686 c 0,0 0.780986,-3.64377 0.545703,-5.92626 C 81.6818,104.28933 80.01062,99.163973 80.01062,99.163973 l 8.188131,-0.107487 10.511503,-20.771859 10.511506,20.771859 8.18829,0.107487 c 0,0 -1.67118,5.125357 -1.90444,7.386627 -0.23528,2.28249 0.5457,5.92626 0.5457,5.92626 l -12.88138,11.00294 h 23.81663 V 69.007157 Z m 28.27631,30.985189 -5.955192,11.910904 c 0,0 4.378376,1.37248 6.315385,1.32085 2.385203,-0.0636 5.883353,-1.22473 5.883353,-1.22473 z" />
  </g>

  <!-- Text placeholder for future use -->
  <!-- <text id="logo-text" x="100" y="170" text-anchor="middle" font-size="14" font-weight="bold" fill="#333333">Your Text Here</text> -->
</svg>
