<?xml version="1.0" encoding="UTF-8" standalone="no"?>
<svg
   width="100%"
   height="100%"
   viewBox="0 0 1400 200"
   version="1.1"
   id="svg1"
   xml:space="preserve"
   sodipodi:docname="logo_text.svg"
   inkscape:version="1.4.2 (f4327f4, 2025-05-13)"
   xmlns:inkscape="http://www.inkscape.org/namespaces/inkscape"
   xmlns:sodipodi="http://sodipodi.sourceforge.net/DTD/sodipodi-0.dtd"
   xmlns="http://www.w3.org/2000/svg"
   xmlns:svg="http://www.w3.org/2000/svg">
   
   <sodipodi:namedview
   id="namedview1"
   pagecolor="#ffffff"
   bordercolor="#000000"
   borderopacity="0.25"
   inkscape:showpageshadow="2"
   inkscape:pageopacity="0.0"
   inkscape:pagecheckerboard="0"
   inkscape:deskcolor="#d1d1d1"
   inkscape:zoom="0.96625"
   inkscape:cx="732.21216"
   inkscape:cy="62.613195"
   inkscape:window-width="1920"
   inkscape:window-height="991"
   inkscape:window-x="-9"
   inkscape:window-y="-9"
   inkscape:window-maximized="1"
   inkscape:current-layer="layer2"
   showguides="false" />
   
  <defs
   id="defs1" />
  <g
   id="logo-group"
   transform="matrix(3.5365296,0,0,3.6715678,-249.09173,-253.36445)">
   <path
   id="rect1"
   style="fill:#ffffff;stroke-width:3.603"
   transform="matrix(0.28276308,0,0,0.27236321,70.433945,69.007155)"
   d="M 0,0 H 200 V 200 H 0 Z" /><path
   id="fire-icon"
   style="fill:#c32824;stroke-width:0.9998845;stroke-dasharray:none"
   d="M 70.433944,69.007157 V 123.4798 H 94.250578 L 81.369194,112.47686 c 0,0 0.780986,-3.64377 0.545703,-5.92626 C 81.6818,104.28933 80.01062,99.163973 80.01062,99.163973 l 8.188131,-0.107487 10.511503,-20.771859 10.511506,20.771859 8.18829,0.107487 c 0,0 -1.67118,5.125357 -1.90444,7.386627 -0.23528,2.28249 0.5457,5.92626 0.5457,5.92626 l -12.88138,11.00294 h 23.81663 V 69.007157 Z m 28.27631,30.985189 -5.955192,11.910904 c 0,0 4.378376,1.37248 6.315385,1.32085 2.385203,-0.0636 5.883353,-1.22473 5.883353,-1.22473 z" />
  </g><g
   id="layer1"
   inkscape:label="text-group"
   transform="matrix(1.0032741,0,0,1.0416667,9.9204763,-0.83494603)"><g
     inkscape:groupmode="layer"
     id="layer2"
     inkscape:label="Text"><text
       xml:space="preserve"
       style="font-style:normal;font-variant:normal;font-weight:normal;font-stretch:normal;font-size:192px;line-height:0;font-family:CHIDO;-inkscape-font-specification:CHIDO;text-align:start;letter-spacing:-0.28px;writing-mode:lr-tb;direction:ltr;text-anchor:start;fill:#000000;stroke-width:3.603"
       x="213.60155"
       y="173.60155"
       id="text1"
       inkscape:label="text1"><tspan
         sodipodi:role="line"
         id="tspan1"
         x="213.60155"
         y="173.60155">Dburnrate</tspan><tspan
         sodipodi:role="line"
         x="213.60155"
         y="173.60155"
         id="tspan2" /></text></g></g>
</svg>
